<svg width="200" height="200" viewBox="0 0 200 200" fill="none" xmlns="http://www.w3.org/2000/svg">
<g filter="url(#filter0_i)">
<path d="M118.762 200H81.2446C78.8939 200 76.6137 199.221 74.7821 197.792C72.9506 196.362 71.6777 194.368 71.1747 192.14L66.9798 173.3C61.3837 170.921 56.0775 167.946 51.1586 164.43L32.2248 170.28C29.9837 170.973 27.5656 170.902 25.372 170.078C23.1783 169.254 21.3412 167.727 20.1657 165.75L1.36589 134.24C0.2027 132.261 -0.233931 129.958 0.127429 127.708C0.488788 125.457 1.62674 123.392 3.35512 121.85L18.0425 108.85C17.3746 102.961 17.3746 97.0189 18.0425 91.13L3.35512 78.16C1.62429 76.6177 0.484793 74.5507 0.123374 72.2978C-0.238044 70.0449 0.200061 67.7397 1.36589 65.76L20.1245 34.23C21.3 32.2532 23.1371 30.7259 25.3307 29.9019C27.5243 29.0778 29.9425 29.0066 32.1836 29.7L51.1174 35.55C53.6323 33.75 56.2503 32.07 58.9507 30.55C61.5583 29.13 64.2381 27.84 66.9798 26.69L71.185 7.87C71.6856 5.64198 72.9561 3.64688 74.7857 2.21549C76.6153 0.784098 78.8942 0.00239966 81.2446 0H118.762C121.112 0.00239966 123.391 0.784098 125.221 2.21549C127.05 3.64688 128.321 5.64198 128.821 7.87L133.068 26.7C135.954 27.94 138.778 29.33 141.509 30.88C144.055 32.31 146.518 33.88 148.889 35.57L167.833 29.72C170.073 29.0292 172.489 29.1017 174.68 29.9256C176.871 30.7495 178.707 32.2753 179.882 34.25L198.64 65.78C201.032 69.85 200.207 75 196.651 78.17L181.964 91.17C182.632 97.0589 182.632 103.001 181.964 108.89L196.651 121.89C200.207 125.07 201.032 130.21 198.64 134.28L179.882 165.81C178.706 167.787 176.869 169.314 174.676 170.138C172.482 170.962 170.064 171.033 167.823 170.34L148.889 164.49C143.974 168.003 138.671 170.975 133.078 173.35L128.821 192.14C128.319 194.366 127.047 196.359 125.218 197.788C123.388 199.218 121.111 199.998 118.762 200V200ZM99.9619 60C89.0277 60 78.5412 64.2143 70.8095 71.7157C63.0779 79.2172 58.7342 89.3913 58.7342 100C58.7342 110.609 63.0779 120.783 70.8095 128.284C78.5412 135.786 89.0277 140 99.9619 140C110.896 140 121.383 135.786 129.114 128.284C136.846 120.783 141.19 110.609 141.19 100C141.19 89.3913 136.846 79.2172 129.114 71.7157C121.383 64.2143 110.896 60 99.9619 60V60Z" fill="white"/>
</g>
<defs>
<filter id="filter0_i" x="-1" y="-1" width="201" height="201" filterUnits="userSpaceOnUse" color-interpolation-filters="sRGB">
<feFlood flood-opacity="0" result="BackgroundImageFix"/>
<feBlend mode="normal" in="SourceGraphic" in2="BackgroundImageFix" result="shape"/>
<feColorMatrix in="SourceAlpha" type="matrix" values="0 0 0 0 0 0 0 0 0 0 0 0 0 0 0 0 0 0 127 0" result="hardAlpha"/>
<feOffset dx="-1" dy="-1"/>
<feGaussianBlur stdDeviation="2.5"/>
<feComposite in2="hardAlpha" operator="arithmetic" k2="-1" k3="1"/>
<feColorMatrix type="matrix" values="0 0 0 0 0.6375 0 0 0 0 0.294313 0 0 0 0 0.185938 0 0 0 0.67 0"/>
<feBlend mode="normal" in2="shape" result="effect1_innerShadow"/>
</filter>
</defs>
</svg>
