<svg width="508" height="354" viewBox="0 0 508 354" fill="none" xmlns="http://www.w3.org/2000/svg">
<path d="M344.088 340.176C345.191 348.387 352.741 354.149 360.952 353.046L494.75 335.075C502.961 333.972 508.723 326.422 507.62 318.212C506.517 310.001 498.967 304.239 490.756 305.342L371.824 321.316L355.85 202.384C354.747 194.174 347.197 188.412 338.987 189.514C330.776 190.617 325.014 198.167 326.117 206.378L344.088 340.176ZM424.408 138.664L438.681 134.051L438.681 134.051L424.408 138.664ZM359.739 49.6922L368.533 37.5403L368.533 37.5403L359.739 49.6922ZM254.802 15.9258L254.762 0.925824L254.762 0.925824L254.802 15.9258ZM149.68 50.262L140.866 38.1249L149.68 50.262ZM84.5263 139.585L98.7789 144.261L98.7789 144.261L84.5263 139.585ZM84.2266 249.778L98.4997 245.165L98.4997 245.165L84.2266 249.778ZM146.856 353.61C155.064 354.736 162.63 348.996 163.757 340.789L182.114 207.043C183.24 198.836 177.5 191.269 169.293 190.142C161.086 189.016 153.519 194.756 152.393 202.963L136.075 321.849L17.1896 305.531C8.98226 304.405 1.41571 310.145 0.28921 318.352C-0.837287 326.559 4.90286 334.126 13.1102 335.253L146.856 353.61ZM370.879 347.28C374.572 342.44 379.553 336.844 385.582 330.183C391.465 323.684 398.21 316.317 404.8 308.49C417.841 293.005 431.552 274.287 438.361 253.532L409.856 244.18C404.907 259.265 394.314 274.37 381.853 289.166C375.693 296.481 369.389 303.369 363.341 310.051C357.439 316.57 351.61 323.079 347.031 329.079L370.879 347.28ZM438.361 253.532C451.106 214.685 451.224 172.859 438.681 134.051L410.135 143.277C420.719 176.024 420.628 211.345 409.856 244.18L438.361 253.532ZM438.681 134.051C426.138 95.241 401.581 61.4559 368.533 37.5403L350.945 61.8441C378.833 82.0257 399.552 110.531 410.135 143.277L438.681 134.051ZM368.533 37.5403C335.486 13.6255 295.657 0.814898 254.762 0.925824L254.843 30.9257C289.417 30.8319 323.056 41.6617 350.945 61.8441L368.533 37.5403ZM254.762 0.925824C213.868 1.03675 174 14.0617 140.866 38.1249L158.495 62.399C186.537 42.0338 220.267 31.0195 254.843 30.9257L254.762 0.925824ZM140.866 38.1249C107.732 62.1882 83.0173 96.0646 70.2736 134.91L98.7789 144.261C109.551 111.424 130.452 82.7642 158.495 62.399L140.866 38.1249ZM70.2736 134.91C57.5295 173.756 57.4107 215.582 69.9536 254.391L98.4997 245.165C87.9159 212.418 88.0069 177.097 98.7789 144.261L70.2736 134.91ZM69.9536 254.391C76.6522 275.117 89.7635 293.106 102.529 308.253C108.947 315.868 115.608 323.136 121.513 329.69C127.55 336.389 132.775 342.317 136.946 347.815L160.846 329.683C155.819 323.056 149.806 316.273 143.8 309.607C137.662 302.795 131.473 296.045 125.469 288.92C113.39 274.588 103.364 260.217 98.4997 245.165L69.9536 254.391Z" fill="black"/>
</svg>
