<svg width="499" height="177" viewBox="0 0 499 177" fill="none" xmlns="http://www.w3.org/2000/svg">
<path d="M487.509 26.2321C486.852 17.9739 479.625 11.8118 471.367 12.4685L336.792 23.1716C328.534 23.8283 322.372 31.0554 323.028 39.3136C323.685 47.5718 330.912 53.7339 339.17 53.0771L458.793 43.5633L468.306 163.186C468.963 171.444 476.19 177.606 484.448 176.949C492.707 176.292 498.869 169.065 498.212 160.807L487.509 26.2321ZM382.588 109.928L389.202 123.39L389.862 123.067L390.486 122.68L382.588 109.928ZM246.597 147.444L246.597 162.444L246.597 147.444ZM113.606 102.691L105.262 115.156L105.262 115.156L113.606 102.691ZM33.372 0.666311C25.1486 -0.336535 17.6693 5.51684 16.6665 13.7402L0.324145 147.747C-0.678701 155.971 5.17467 163.45 13.398 164.453C21.6214 165.456 29.1007 159.602 30.1035 151.379L44.63 32.2615L163.748 46.788C171.971 47.7909 179.45 41.9375 180.453 33.7141C181.456 25.4908 175.603 18.0115 167.379 17.0086L33.372 0.666311ZM461.142 17.689C426.18 58.6928 403.336 79.4323 374.689 97.1757L390.486 122.68C422.776 102.68 447.932 79.4192 483.97 37.1536L461.142 17.689ZM375.973 96.465C336.008 116.101 298.469 132.444 246.597 132.444L246.597 162.444C305.644 162.444 348.342 143.467 389.202 123.39L375.973 96.465ZM246.597 132.444C192.274 132.444 157.613 114.097 121.95 90.2254L105.262 115.156C143.222 140.565 183.796 162.444 246.597 162.444L246.597 132.444ZM121.95 90.2254C86.9399 66.791 62.2722 30.4658 43.3687 6.31137L19.7436 24.8006C36.8401 46.6462 65.1724 88.321 105.262 115.156L121.95 90.2254Z" fill="black"/>
</svg>
