<svg width="178" height="499" viewBox="0 0 178 499" fill="none" xmlns="http://www.w3.org/2000/svg">
<path d="M151.324 487.953C159.582 487.296 165.744 480.069 165.088 471.811L154.385 337.236C153.728 328.978 146.501 322.815 138.243 323.472C129.984 324.129 123.822 331.356 124.479 339.614L133.993 459.236L14.3706 468.75C6.11241 469.407 -0.0497494 476.634 0.607041 484.892C1.26383 493.15 8.49085 499.313 16.749 498.656L151.324 487.953ZM67.6285 383.032L54.1658 389.646L54.4897 390.306L54.8764 390.93L67.6285 383.032ZM30.1122 247.041L15.1122 247.041L30.1122 247.041ZM74.8656 114.05L62.4004 105.706L62.4004 105.706L74.8656 114.05ZM176.89 33.8158C177.893 25.5925 172.039 18.1132 163.816 17.1103L29.8088 0.767992C21.5855 -0.234854 14.1062 5.61852 13.1033 13.8419C12.1005 22.0652 17.9539 29.5445 26.1772 30.5474L145.295 45.0739L130.768 164.191C129.765 172.415 135.619 179.894 143.842 180.897C152.065 181.9 159.545 176.046 160.548 167.823L176.89 33.8158ZM159.867 461.586C118.863 426.624 98.1239 403.78 80.3805 375.133L54.8764 390.93C74.8765 423.22 98.1371 448.376 140.403 484.414L159.867 461.586ZM81.0912 376.417C61.4549 336.452 45.1121 298.913 45.1122 247.041L15.1122 247.041C15.1121 306.087 34.0892 348.785 54.1658 389.646L81.0912 376.417ZM45.1122 247.041C45.1122 192.717 63.4589 158.057 87.3308 122.394L62.4004 105.706C36.9915 143.666 15.1122 184.24 15.1122 247.041L45.1122 247.041ZM87.3308 122.394C110.765 87.3837 147.09 62.7161 171.245 43.8126L152.756 20.1874C130.91 37.2839 89.2352 65.6163 62.4004 105.706L87.3308 122.394Z" fill="black"/>
</svg>
